<svg width="101" height="101" viewBox="0 0 101 101" fill="none" xmlns="http://www.w3.org/2000/svg">
<rect x="0.851318" y="0.495117" width="100" height="100" rx="12" fill="white"/>
<g clip-path="url(#clip0_111_2439)">
<path d="M66.6013 28.8951H35.1013C31.3734 28.8951 28.3513 31.9171 28.3513 35.6451V76.1451C28.3513 79.8729 31.3734 82.8951 35.1013 82.8951H66.6013C70.3293 82.8951 73.3513 79.8729 73.3513 76.1451V35.6451C73.3513 31.9171 70.3293 28.8951 66.6013 28.8951Z" fill="#4D6850"/>
<path d="M32.8513 28.8951C32.8513 22.1451 37.3513 19.8951 44.1013 19.8951H57.6013C64.3513 19.8951 68.8513 22.1451 68.8513 28.8951" stroke="#4D6850" stroke-width="8" stroke-linecap="round"/>
<path d="M37.3513 51.3951H64.3513" stroke="white" stroke-width="5" stroke-linecap="round"/>
<path d="M37.3513 60.3951H64.3513" stroke="white" stroke-width="5" stroke-linecap="round"/>
</g>
<defs>
<clipPath id="clip0_111_2439">
<rect width="45" height="64.8" fill="white" transform="translate(28.3513 18.0951)"/>
</clipPath>
</defs>
</svg>
