<svg width="41" height="52" viewBox="0 0 41 52" fill="none" xmlns="http://www.w3.org/2000/svg">
<path d="M32.2432 49.8954C31.9189 50.6574 30.9764 51.2804 30.1487 51.2804H11.8306C11.0028 51.2804 10.0602 50.6574 9.73619 49.8954L6.91218 43.2586C6.58817 42.4967 7.00014 41.8737 7.82813 41.8737H34.1513C34.9789 41.8737 35.3914 42.4967 35.0672 43.2586L32.2432 49.8954Z" fill="#4D6850"/>
<path d="M40.5982 27.2501C40.2057 26.7179 39.454 26.4759 39.2656 26.2255C39.0707 25.965 39.3319 25.2745 38.9772 24.4164C38.612 23.5329 37.4453 22.8258 36.2862 22.6541C35.8977 22.5965 35.6468 22.7819 35.4981 22.6895C35.0658 22.4212 34.9124 21.5674 33.6099 21.3596C32.8321 21.2355 32.0137 21.1901 31.3904 21.2969C29.5021 21.6213 27.8133 22.8189 27.3752 24.1449C26.7113 26.1533 28.6059 27.3237 29.4148 27.8238C29.51 27.883 29.6051 27.941 29.6944 27.9987C30.0682 28.2548 30.4428 28.3946 30.7532 28.4801C30.8332 28.502 30.9575 28.5213 30.9009 28.5917C29.9346 30.2372 28.5461 32.0308 26.5987 32.9979C25.6363 33.4753 24.7637 34.0482 24.0111 34.6174C22.904 30.5549 23.2263 27.5297 23.4279 25.2117C23.4969 24.4161 23.5142 23.7046 23.4796 22.8097C23.4868 22.6542 23.5841 22.6338 23.6386 22.6215C24.3199 22.4699 24.9768 22.1634 25.6003 21.7011C26.3351 21.213 26.8118 20.6059 27.1964 20.1157C27.6014 19.5994 27.8334 19.3183 28.1985 19.1574C28.7772 18.9354 29.3621 18.8275 29.9855 18.8275C30.5779 18.8275 31.2133 18.9298 31.8751 19.1317L31.9087 19.142L31.943 19.151C32.6805 19.3428 33.7957 19.5712 34.9188 19.5712C36.6052 19.5712 37.8819 19.0732 38.7135 18.0907C39.5215 17.1357 39.7996 15.8507 39.5387 14.2707C39.3594 13.0506 38.7175 12.2169 38.2004 11.5461C37.9452 11.2152 37.5355 10.7088 37.7869 10.4917C38.211 10.125 38.8681 9.59499 39.2271 8.64763C39.6816 7.51826 39.5284 6.29418 38.7945 5.19706C37.8843 3.83739 35.9526 2.93528 34.5821 2.85457C31.902 2.69688 29.4727 4.92877 29.4713 4.92894C29.047 4.94413 28.6531 3.96959 28.3068 3.49448C27.2104 1.9918 25.8458 0.121565 23.6205 0.00861083C23.5091 0.00270144 23.3965 0 23.2834 0C19.9778 0 16.3478 2.35734 14.8397 5.48324C14.5761 6.02893 14.1488 6.66968 13.8734 6.82163C13.6548 6.94218 12.7157 6.8527 12.2482 6.72725C11.8872 6.63034 11.4399 6.51029 10.8937 6.41878C10.3259 6.30127 9.75829 6.24184 9.20618 6.24184C7.02815 6.24184 5.02014 7.16404 3.39978 8.90849C1.58121 10.8662 1.12939 13.7002 1.02184 15.2153C0.956502 16.1379 0.852497 19.2739 2.2618 20.8943C4.08764 22.9934 6.71613 24.1973 9.47328 24.1974C9.47345 24.1974 9.47362 24.1974 9.47362 24.1974C10.4688 24.1974 11.4631 24.0391 12.4292 23.727C13.4018 23.4404 14.239 22.9519 15.0489 22.4793C15.9684 21.9426 16.8371 21.4357 17.6247 21.4357C17.6786 21.4357 17.7309 21.4379 17.7844 21.4423L17.8151 21.4447C18.3961 21.4825 19.0176 21.7315 19.6759 21.9951C19.7465 22.0233 19.8183 22.052 19.8905 22.0807C19.9258 22.0947 19.991 22.1476 19.9837 22.2722C19.9359 22.8021 19.8959 23.2394 19.8375 23.8802C19.5231 27.3103 18.1105 34.1088 16.9711 36.6936C16.1891 38.4683 14.2047 38.717 13.825 39.7577C13.7919 39.8482 13.7767 40.0206 14.0159 40.0089C14.0159 40.0089 24.5291 40.0203 24.5968 40.0203C24.7219 40.0203 24.8419 39.9701 24.9147 39.9439C25.7835 39.6277 26.5773 38.6012 27.9585 36.3179C28.887 34.7833 30.3861 32.672 31.7858 30.589C31.8944 30.441 31.9582 30.5144 32.0041 30.5401C32.2125 30.6578 32.4632 30.7548 32.7678 30.8188C32.8719 30.8462 32.9673 30.8691 33.0577 30.8909C33.1757 30.9191 33.3398 30.9075 33.4712 31.0209C34.2286 31.6755 34.4737 32.8956 35.6607 33.0848C36.1496 33.1628 37.1032 33.1554 38.0107 32.2344C38.3559 31.8932 38.5171 31.6347 38.665 31.3785C38.7438 31.2423 39.0312 31.1955 39.2345 31.1173C40.002 30.8333 40.5899 30.1431 40.8503 29.2194C40.9644 28.814 41.1912 28.0281 40.5982 27.2501Z" fill="#4D6850"/>
</svg>
